PathFileType	4	(X/Y/Z)	HSS_squat5.trc
DataRate	CameraRate	NumFrames	NumMarkers	Units	OrigDataRate	OrigDataStartFrame	OrigNumFrames
120.0	120.0	8	44	mm	120.0	858	980
Frame#	Time		R.Shoulder		Offset		L.Shoulder		R.Elbow		R.Wrist.Radial		R.Wrist		R.Hand		L.Elbow		L.Wrist.Radial		L.Wrist		L.Hand		R.Hip		V.Sacral		L.PSIS		L.Hip		R.Thigh.Upper		R.Thigh.Front		R.Thigh.Rear		X.Shell.Lower.Thigh.Right		R.Knee.Lateral		R.Shank.Upper		R.Shank.Front		R.Shank.Rear		X.Shell.Lower.Shank.Right		R.Ankle.Lateral		R.Heel		R.Toe		L.Thigh.Upper		L.Thigh.Front		L.Thigh.Rear		X.Shell.Lower.Thigh.Left		L.Knee.Lateral		L.Shank.Upper		L.Shank.Front		L.Shank.Rear		X.Shell.Lower.Shank.Left		L.Ankle.Lateral		L.Heel		L.Toe		R.Troc		L.Troc		R.PSIS		L.ASIS		R.ASIS
			X1	Y1	Z1	X2	Y2	Z2	X3	Y3	Z3	X4	Y4	Z4	X5	Y5	Z5	X6	Y6	Z6	X7	Y7	Z7	X8	Y8	Z8	X9	Y9	Z9	X10	Y10	Z10	X11	Y11	Z11	X12	Y12	Z12	X13	Y13	Z13	X14	Y14	Z14	X15	Y15	Z15	X16	Y16	Z16	X17	Y17	Z17	X18	Y18	Z18	X19	Y19	Z19	X20	Y20	Z20	X21	Y21	Z21	X22	Y22	Z22	X23	Y23	Z23	X24	Y24	Z24	X25	Y25	Z25	X26	Y26	Z26	X27	Y27	Z27	X28	Y28	Z28	X29	Y29	Z29	X30	Y30	Z30	X31	Y31	Z31	X32	Y32	Z32	X33	Y33	Z33	X34	Y34	Z34	X35	Y35	Z35	X36	Y36	Z36	X37	Y37	Z37	X38	Y38	Z38	X39	Y39	Z39	X40	Y40	Z40	X41	Y41	Z41	X42	Y42	Z42	X43	Y43	Z43	X44	Y44	Z44

858	7.14167	145.31519	1489.54602	-101.82864	-149.01234	1394.88965	10.89734	-195.46683	1494.36304	-123.77654	295.19910	1258.87354	-340.88873	75.79304	1305.77380	-489.74670	120.68499	1326.39648	-543.24432	36.01068	1334.40515	-570.35663	-341.77725	1299.19641	-386.63589	-99.96058	1295.63379	-501.54749	-134.21245	1334.41296	-550.81482	-45.37559	1322.41882	-559.06268	124.36804	1039.72083	-97.41320	-27.74228	1021.29956	15.20394	-69.49937	1027.41138	11.32134	-171.30325	1039.19446	-110.84161	189.51093	706.18549	-144.16216	184.46211	670.94159	-183.15059	196.35472	666.28790	-122.59122	188.84123	635.25714	-156.08406	172.09598	522.05872	-107.51116	230.47009	378.16226	-92.87547	213.69016	332.80688	-123.42371	217.90121	340.45050	-62.73070	215.81795	299.93329	-86.82914	188.65672	72.17371	-82.20393	140.12744	33.28743	-42.46226	203.54587	31.79930	-236.93530	-223.72649	705.09589	-169.93256	-207.45892	655.62744	-195.43799	-237.86481	667.78784	-142.37978	-231.20166	634.48315	-171.25494	-214.31464	512.95221	-116.73021	-271.08893	316.26306	-84.56427	-258.19733	290.78018	-112.90545	-260.21713	276.27090	-54.44102	-266.37759	245.95012	-77.18328	-239.53311	75.79757	-95.74310	-195.47964	34.85935	-42.26937	-241.75450	32.76316	-240.91620	163.06825	912.83417	-103.16079	-207.76204	914.48975	-111.52487	15.86067	1024.69958	16.29656	-127.71071	1007.03949	-172.85147	96.00628	1004.35962	-157.68398
859	7.15000	145.58551	1489.45972	-101.25488	-148.75333	1394.32312	11.62861	-195.50371	1494.22742	-122.81802	295.18372	1258.15356	-339.92239	75.99738	1305.01880	-488.86258	120.73817	1325.38892	-542.60864	35.97758	1333.40955	-569.46039	-341.65887	1298.74060	-385.59528	-100.14436	1294.87732	-500.62961	-134.39822	1333.44678	-549.85553	-45.42073	1321.54858	-558.29425	124.78582	1039.82068	-98.49150	-27.45318	1020.82251	13.88882	-68.97499	1026.91907	10.09785	-171.02477	1039.20386	-111.78788	189.65227	706.26434	-144.29443	184.67570	670.87262	-183.12088	196.56036	666.50842	-122.55029	188.96477	635.28918	-155.92200	172.14656	522.23438	-106.58352	230.50394	378.28226	-92.00975	213.85310	333.03152	-122.68015	217.85141	340.47653	-61.90920	215.88071	300.01462	-86.18597	188.70166	72.16315	-82.18671	140.16156	33.27085	-42.44682	203.60754	31.85179	-236.92435	-223.52400	705.15289	-169.82518	-207.52594	655.66089	-195.32024	-237.65878	668.02899	-142.11186	-231.10956	634.66553	-170.86447	-214.09351	513.08917	-115.48458	-270.98477	316.35828	-83.47158	-258.13208	290.97284	-111.87714	-260.02560	276.24173	-53.49481	-266.18253	245.94305	-76.20171	-239.56085	75.86620	-95.57049	-195.50464	34.85529	-42.26570	-241.83057	32.78180	-240.86330	163.31053	912.95026	-104.35044	-207.28363	914.60663	-112.42594	16.22663	1024.10950	15.08369	-127.42218	1007.29883	-174.11514	96.42941	1004.71887	-158.84247
860	7.15833	145.94629	1489.30469	-100.52393	-148.40764	1393.74719	12.22300	-195.50604	1494.04065	-121.76580	295.30035	1257.48706	-339.01663	75.85844	1304.24280	-487.88440	120.70928	1324.36694	-541.65692	36.04756	1332.49341	-568.60815	-341.58185	1298.20386	-384.43628	-100.05905	1293.91882	-499.87885	-134.35742	1332.72070	-548.90021	-45.42009	1320.86499	-557.47620	125.02599	1039.86792	-99.44548	-26.99524	1020.65240	12.53855	-68.74921	1026.45679	8.93752	-170.76141	1039.15430	-112.72209	189.78166	706.36542	-144.48784	184.83243	670.78864	-183.14798	196.76059	666.71069	-122.59738	189.05644	635.30530	-155.82834	172.17134	522.37958	-105.63873	230.50835	378.39828	-91.22031	213.92931	333.26880	-121.90918	217.84572	340.46207	-61.15014	215.98000	300.09744	-85.50748	188.73772	72.15548	-82.14284	140.20592	33.27092	-42.44974	203.63962	31.92663	-236.91562	-223.38866	705.20093	-169.60709	-207.42654	655.52594	-194.95215	-237.05563	668.20709	-140.84331	-230.95996	634.77411	-170.31241	-213.96053	513.26471	-114.08571	-270.86069	316.42932	-82.41481	-257.97565	291.15521	-110.87727	-259.90707	276.19580	-52.63062	-266.10562	245.99043	-75.42448	-239.56709	75.90028	-95.46867	-195.48697	34.85204	-42.25652	-241.90353	32.80610	-240.83321	163.70195	913.12848	-105.78806	-206.72588	914.65656	-113.41884	16.44263	1023.75244	14.03158	-127.22911	1007.47522	-175.16896	96.75727	1004.98199	-160.12744
861	7.16667	146.21956	1489.11475	-99.80917	-148.10939	1393.19958	12.87640	-195.46231	1493.88123	-120.78688	295.26678	1256.73450	-338.13065	75.92043	1303.45740	-487.01712	120.74873	1323.42810	-540.89111	36.15420	1331.58313	-567.75281	-341.53363	1297.71680	-383.40125	-99.98610	1293.40576	-498.74945	-134.45459	1332.14087	-548.04449	-45.38784	1319.85608	-556.36060	125.46965	1039.99561	-100.78876	-26.59621	1020.33630	11.11296	-68.43262	1026.21802	7.65461	-170.44717	1039.09631	-113.62582	189.92673	706.41144	-144.83675	184.87947	670.69818	-183.24507	196.87108	666.88397	-122.74995	189.11151	635.30768	-155.75923	172.25591	522.48926	-104.84921	230.51047	378.52750	-90.34252	214.00803	333.47272	-121.11810	218.00972	340.49631	-60.51663	216.08601	300.18887	-84.82056	188.78603	72.14786	-82.11422	140.21092	33.26294	-42.42720	203.67944	31.95743	-236.91772	-223.25612	705.22186	-169.39615	-207.35759	655.37207	-194.43948	-236.89314	668.33380	-140.37267	-230.95000	634.78375	-169.69968	-213.69719	513.47711	-112.50187	-270.79199	316.53268	-81.15221	-258.03613	291.30283	-109.82983	-259.71475	276.20187	-51.50821	-266.08969	245.96117	-74.52190	-239.61986	75.95190	-95.31396	-195.51315	34.83411	-42.24169	-241.98932	32.84927	-240.82205	163.88870	913.22424	-106.97677	-206.14972	914.69421	-114.50576	16.81679	1023.28015	12.62996	-126.97011	1007.64087	-176.50281	97.22061	1005.21820	-161.34663
862	7.17500	146.44592	1488.98279	-99.03820	-147.78297	1392.62695	13.57923	-195.44006	1493.74011	-119.83456	295.28287	1256.07056	-337.34567	75.90528	1302.52930	-486.23392	120.69527	1322.50427	-540.16364	36.00006	1330.57935	-567.01172	-341.48236	1297.21484	-382.37592	-100.04383	1292.78296	-497.74149	-134.35855	1331.36243	-546.94409	-45.37416	1319.13953	-555.58606	125.65111	1040.09753	-101.63818	-26.27542	1020.09808	10.15288	-68.07065	1025.88135	6.55172	-170.21634	1039.10278	-114.62418	190.02954	706.43555	-145.17320	184.83665	670.55157	-183.37166	196.93991	667.00751	-122.92138	189.09958	635.27362	-155.74294	172.28004	522.62329	-104.17755	230.56042	378.65051	-89.37798	213.98845	333.67218	-120.42856	218.14958	340.54086	-59.74648	216.17479	300.23718	-84.33517	188.81639	72.14917	-82.06266	140.24358	33.24668	-42.41947	203.69630	32.01910	-236.90550	-223.07722	705.23541	-169.17188	-207.32051	655.18652	-193.90253	-236.75772	668.46692	-139.88956	-230.84727	634.70642	-168.90666	-213.49414	513.60217	-111.35751	-270.67212	316.52942	-80.08355	-257.88852	291.34851	-108.80604	-259.64972	276.14175	-50.50795	-266.04431	245.99380	-73.62040	-239.63747	75.96976	-95.19457	-195.51083	34.82081	-42.23053	-242.07349	32.86023	-240.82663	164.17430	913.29285	-108.27029	-205.73097	914.78619	-115.46176	17.07916	1022.87256	11.67153	-126.74859	1007.74542	-177.47755	97.57416	1005.40637	-162.71057
863	7.18333	146.76752	1488.76440	-98.36912	-147.50974	1392.12598	14.13645	-195.41037	1493.59595	-118.98821	295.37070	1255.39978	-336.54865	75.86243	1301.89062	-485.40607	120.74512	1321.54675	-539.40131	36.13827	1329.78040	-566.30280	-341.40186	1296.76294	-381.38739	-100.10466	1292.01172	-497.03769	-134.37845	1330.69458	-545.99866	-45.39645	1318.39990	-554.58057	126.11259	1040.17822	-103.03999	-26.00694	1019.80029	8.88136	-67.69701	1025.71423	5.55754	-169.91379	1038.99268	-115.58276	190.06535	706.43817	-145.45226	184.69560	670.31714	-183.51250	196.99686	667.09521	-123.14876	189.07658	635.24585	-155.77371	172.25960	522.79370	-103.33768	230.62930	378.76047	-88.74358	214.04384	333.81613	-119.76871	218.25612	340.57367	-58.98073	216.23375	300.31491	-83.61340	188.86803	72.14948	-82.02634	140.28629	33.23598	-42.42078	203.68822	32.04817	-236.88585	-222.90361	705.19513	-168.93320	-207.35834	655.02197	-193.39220	-236.47159	668.66754	-139.34134	-230.72321	634.68176	-168.21941	-213.34935	513.71570	-109.87669	-270.54346	316.53180	-78.97665	-257.88232	291.50305	-107.86918	-259.36362	276.02826	-49.59517	-265.89401	245.99603	-72.70278	-239.65196	76.00222	-95.02984	-195.52271	34.81491	-42.19141	-242.12022	32.87893	-240.77504	164.45001	913.45508	-109.54727	-205.30966	914.90259	-116.40765	17.41088	1022.49744	10.43073	-126.51225	1007.92267	-178.60133	97.90076	1005.61505	-163.72551
864	7.19167	147.05533	1488.58350	-97.60973	-147.11830	1391.58301	14.81203	-195.36528	1493.36682	-117.98808	295.43994	1254.87402	-335.77054	76.06528	1301.29187	-484.59726	120.80003	1320.71948	-538.82294	36.16485	1328.95752	-565.45929	-341.32581	1296.24304	-380.40295	-100.00808	1291.50989	-496.01581	-134.32095	1330.11829	-545.36792	-45.24912	1317.60327	-553.94843	126.37580	1040.28796	-103.86595	-25.59649	1019.55530	7.49125	-67.31812	1025.47119	4.24218	-169.61905	1038.93604	-116.67619	190.08926	706.40131	-145.82951	184.53323	670.05493	-183.70097	197.05424	667.16980	-123.34542	189.00737	635.20923	-155.79370	172.21066	522.99036	-102.42775	230.70312	378.87094	-88.13760	214.03024	334.02869	-119.08737	218.35010	340.61368	-58.41229	216.27180	300.46860	-82.78620	188.92825	72.14566	-81.99314	140.30540	33.22621	-42.38315	203.74744	32.12008	-236.83836	-222.73639	705.12231	-168.61983	-207.28690	654.79871	-192.91800	-236.18768	668.78290	-138.73853	-230.60710	634.64258	-167.56873	-213.08630	513.86053	-108.62114	-270.36359	316.59430	-77.88846	-257.83713	291.69412	-106.78401	-259.13818	275.95709	-48.70298	-265.71628	246.06459	-71.80923	-239.62540	76.00943	-94.92523	-195.52336	34.80960	-42.20601	-242.23581	32.90426	-240.77391	164.75742	913.45306	-110.85630	-204.87068	914.91010	-117.22359	17.83461	1022.11188	9.21903	-126.24036	1007.98438	-179.53540	98.21859	1005.75665	-165.02405
865	7.20000	147.26495	1488.39014	-96.91248	-146.80386	1391.01526	15.45905	-195.34795	1493.20264	-117.14268	295.44754	1254.36035	-335.00510	75.95481	1300.50989	-483.76263	120.73789	1320.00769	-537.94855	36.17577	1328.16846	-564.66089	-341.23981	1295.77881	-379.48477	-99.84808	1290.96838	-495.09665	-134.27840	1329.21411	-544.26190	-45.24954	1316.84436	-553.06079	126.82137	1040.30396	-105.18453	-25.25610	1019.28497	6.61999	-66.89575	1025.06348	3.16841	-169.35875	1038.88660	-117.58898	190.09668	706.35614	-146.16899	184.35406	669.82556	-183.88747	197.07823	667.24310	-123.52912	188.94359	635.11481	-155.81577	172.32822	523.11188	-101.65974	230.62122	378.99139	-87.04392	214.09822	334.19427	-118.28022	218.34238	340.64966	-57.58086	216.35713	300.57852	-82.34190	188.99811	72.13450	-81.96700	140.33444	33.20892	-42.35241	203.75882	32.18755	-236.78847	-222.58258	705.06104	-168.35901	-207.20912	654.59412	-192.33104	-235.87590	668.89716	-138.17685	-230.38501	634.61682	-166.85628	-212.93451	514.01282	-107.31797	-270.14798	316.67319	-76.79470	-257.76587	291.79913	-105.74712	-258.94162	275.96228	-47.66499	-265.61160	246.13829	-70.94386	-239.61761	76.04055	-94.78631	-195.53119	34.78634	-42.20247	-242.30920	32.93756	-240.75670	165.06696	913.46448	-112.28042	-204.50131	914.90436	-118.08269	18.23337	1021.70300	8.17973	-126.12677	1008.05518	-180.64041	98.61197	1005.93109	-166.24553
